<?xml version="1.0" encoding="UTF-8" standalone="no"?>
<!-- Created with Inkscape (http://www.inkscape.org/) -->

<svg
   version="1.1"
   id="svg1"
   width="1024"
   height="1024"
   viewBox="0 0 1024 1024"
   xmlns="http://www.w3.org/2000/svg"
   xmlns:svg="http://www.w3.org/2000/svg">
  <defs
     id="defs1" />
  <g
     id="g1">
    <path
       style="fill:#000000"
       d="m 424,901.5 c 0,-0.275 0.225,-0.5 0.5,-0.5 0.275,0 0.5,0.225 0.5,0.5 0,0.275 -0.225,0.5 -0.5,0.5 -0.275,0 -0.5,-0.225 -0.5,-0.5 z m 73.80601,-45.25 c -5.17339,-6.01971 -16.54,-25.7728 -36.10851,-62.75 -4.94807,-9.35 -9.98068,-18.575 -11.1836,-20.5 -1.20291,-1.925 -8.12928,-14.975 -15.39194,-29 -7.26266,-14.025 -14.53688,-27.975 -16.16492,-31 -12.52043,-23.2636 -11.58208,-11.69578 -10.9914,-135.5 0.53436,-112 0.53436,-112 -6.99421,-120 -24.93992,-26.50161 -31.92494,-60.01655 -19.92955,-95.62431 5.51162,-16.36101 20.943,-38.32139 30.57194,-43.50692 4.33412,-2.33408 4.26113,-3.12308 -0.73225,-7.91582 -9.73413,-9.343 -23.67732,-36.8806 -31.87517,-62.95295 -6.29338,-20.01543 -2.65916,-54.61551 6.35169,-60.47206 1.72805,-1.12314 4.71691,-3.19731 6.64191,-4.60926 4.40046,-3.22767 4.5959,-2.58877 3.0967,10.12314 -3.24075,27.47872 2.35031,56.556 16.14102,83.94426 12.67116,25.16483 44.62927,50.19306 77.26228,60.50853 9.90493,3.131 46.82034,18.58875 54.5,22.82103 39.30853,21.66299 40.72491,66.97821 2.90125,92.82197 -7.11416,4.86089 -7.11416,4.86089 -4.272,6.86164 1.5632,1.10041 5.89803,4.8986 9.63297,8.44041 18.99892,18.0165 51.9471,-51.94604 40.00151,-84.93966 -12.34413,-34.09443 -25.36963,-43.35459 -100.45935,-71.41917 -28.74969,-10.74512 -53.6829,-30.02317 -68.81085,-53.2037 -15.12912,-23.1823 -18.47395,-35.36267 -11.32833,-41.25269 3.6652,-3.02117 3.6652,-3.02117 -0.51173,-7.3228 -8.0395,-8.27951 -9.27674,-18.25826 -3.42998,-27.66373 2.33748,-3.76022 2.78885,-5.25793 2.0061,-6.65662 -10.85048,-19.38874 16.77749,-60.61841 47.11496,-70.31044 5.44267,-1.73879 85.39689,-0.39836 91.15545,1.52822 28.97361,9.69339 49.09964,43.86708 39.97263,67.87291 -0.89537,2.355 -0.55259,3.39153 2.66794,8.06759 6.66523,9.67763 5.89092,17.13903 -2.87272,27.6822 -4.00793,4.82177 -4.00793,4.82177 -1.85334,6.3309 9.04148,6.3329 11.72595,17.42603 6.12163,25.29658 -2.22978,3.13144 -2.2301,3.13861 -2.10921,46.84133 0.0728,26.30363 -0.27351,45.05414 -0.86958,47.08628 -0.92917,3.16774 -0.71236,3.69411 3.50096,8.5 33.67346,38.40931 27.49136,90.70028 -16.42472,138.92761 -6.19619,6.80447 -6.19619,6.80447 -2.87919,10.67964 16.36884,19.1233 23.2693,52.80055 19.05895,93.01589 -1.19788,11.44163 -1.42975,23.87863 -1.0993,58.96495 0.41908,44.4969 -7.59579,71.57113 -32.98699,111.42999 -1.43827,2.25778 -5.60423,9.73006 -9.25769,16.60506 -22.01661,41.43037 -41.23673,76.19715 -44.64103,80.75 -2.79097,3.7326 -3.44982,3.91156 -5.52233,1.5 z m -5.21308,-61.70095 c -0.83904,-6.62698 -1.6177,-14.63655 -1.73035,-17.79905 -0.1183,-3.32096 -0.66059,-5.74965 -1.28371,-5.74918 -1.7458,10e-4 -15.99305,3.08003 -16.47261,3.55959 -0.24139,0.24139 3.61525,8.42654 8.5703,18.18924 4.95506,9.76269 9.62537,19.32535 10.37847,21.25035 2.15209,5.50093 2.42905,-4.51414 0.5379,-19.45095 z m -17.85804,-35.24728 c 14.12248,-4.34744 37.20568,-3.84416 59.51511,1.29758 1.63811,0.37754 2.75,0.21496 2.75,-0.40211 0,-0.56975 7.24952,-15.72268 16.11005,-33.67319 17.63344,-35.72349 17.20503,-34.43566 10.46336,-31.4535 -9.50653,4.20519 -18.00955,0.48813 -25.8684,-11.30826 -7.61129,-11.42481 -7.3968,-11.41808 -18.46171,-0.57944 -17.39272,17.03705 -21.69623,17.12488 -39.7433,0.81111 -3.85,-3.48024 -7.35986,-6.92761 -7.79969,-7.66083 -1.46247,-2.43801 -3.18362,-1.39785 -11.22377,6.78297 -13.52302,13.75963 -16.92106,15.28435 -26.7999,12.02529 -5.63381,-1.8586 -5.63381,-1.8586 -0.24714,8.25 2.96267,5.55974 10.3152,19.55861 16.33895,31.10861 12.67227,24.29792 14.46519,27.48506 15.46644,27.49368 0.40419,0.003 4.67919,-1.20788 9.5,-2.69191 z m -28.12995,-84.65341 c 15.69964,-17.16402 14.1806,-6.24154 14.10933,-101.45154 C 460.66442,506.60216 460.38264,488 459.42375,488 c -1.90354,0 -23.40634,-8.82612 -27.17053,-11.15252 -4.95262,-3.06089 -4.69604,-7.79643 -5.10374,94.19535 -0.42838,107.16159 -0.97775,98.49265 6.61968,104.45695 7.13308,5.59978 6.92218,5.61377 12.83578,-0.85142 z M 564.52176,676.25 c 5.28564,-3.39517 5.43749,-4.29603 4.25326,-25.23265 C 568.29229,642.48281 568.14319,629.425 568.4437,622 c 0.96483,-23.83913 -1.26402,-41.5 -5.2374,-41.5 -1.37448,0 -6.15066,-4.22231 -5.50572,-4.86725 0.34801,-0.34801 -0.1438,-0.63275 -1.09293,-0.63275 -0.94913,0 -1.44757,-0.45 -1.10765,-1 0.33992,-0.55 -0.11008,-1 -1,-1 -0.88992,0 -1.33992,-0.45 -1,-1 0.33992,-0.55 -0.0835,-1 -0.94098,-1 -0.85746,0 -1.46342,-0.3375 -1.34657,-0.75 0.11685,-0.4125 -0.43227,-1.875 -1.22027,-3.25 -2.11061,-3.68284 -4.14208,-9.1518 -4.45746,-12 -0.15225,-1.375 -0.33485,-2.6125 -0.40577,-2.75 -0.0709,-0.1375 -0.12292,-0.47806 -0.11555,-0.75679 0.03,-1.1352 -4.945,-10.18253 -6.87513,-12.50275 C 536.06654,536.5 536.06654,536.5 536.01582,597 c -0.0507,60.5 -0.0507,60.5 11.19207,71.25 12.72646,12.16864 11.62001,11.65739 17.31387,8 z M 544,559.5 c 0,-0.275 0.225,-0.5 0.5,-0.5 0.275,0 0.5,0.225 0.5,0.5 0,0.275 -0.225,0.5 -0.5,0.5 -0.275,0 -0.5,-0.225 -0.5,-0.5 z M 504.59899,673.75 C 517.05633,660.56488 516,668.35144 516,589.70906 c 0,-81.09894 1.71657,-75.60865 -28.23183,-90.29672 -7.82171,-3.83612 -7.23914,-9.91462 -7.53567,78.62708 -0.26751,79.87332 -0.26751,79.87332 9.37261,89.91695 11.21475,11.68417 9.9062,11.17855 14.99388,5.79363 z m 70.93186,-98.96904 c 5.84872,-6.9508 -0.089,-37.45429 -11.73405,-60.28096 -14.73393,-28.88141 -35.33139,-45.05277 -79.58376,-62.48233 -46.19243,-18.19369 -54.93121,-24.10522 -64.33051,-43.51767 -11.11349,-22.9528 -6.868,-46.73986 11.89415,-66.64178 6.27668,-6.65798 6.27668,-6.65798 0.89219,-11.2581 -6.12371,-5.23165 -7.18018,-5.48879 -9.65548,-2.35012 -0.97594,1.2375 -5.4276,6.51979 -9.89258,11.73843 -39.51715,46.18744 -20.42739,103.50046 42.13465,126.50051 44.02081,16.18363 50.12329,19.20936 67.71157,33.57275 23.00211,18.78458 37.26926,39.89178 45.0771,66.68831 3.64597,12.51296 3.68245,12.55209 7.48672,8.03096 z m -59.6067,-168.8905 c -0.16151,-40.97875 1.2147,-38.43825 -26.19812,-48.36167 -10.0404,-3.63462 -9.22603,-6.77671 -9.22603,35.59678 0,36.96034 0,36.96034 8.5,39.85496 4.675,1.59204 12.325,4.47816 17,6.4136 4.675,1.93543 8.85334,3.53852 9.28521,3.56242 0.43187,0.0239 0.71939,-16.65584 0.63894,-37.06609 z m 23.89041,32.96165 c 19.91894,-23.34913 20.94075,-36.70323 4.13973,-54.10211 -6.33887,-6.56444 -7.54894,-6.96518 -8.17391,-2.707 -0.54522,3.71482 0.31731,59.957 0.9195,59.957 0.23608,0 1.63769,-1.41655 3.11468,-3.14789 z m -79.39741,-18.71806 c 3.5031,-5.66813 0.28182,-72.87072 -3.58898,-74.87372 -6.00794,-3.10889 -5.61396,-3.30151 -14.29613,6.98967 -16.31796,19.34204 -15.97069,40.41051 0.95729,58.07752 5.78324,6.03573 15.70571,11.78395 16.92782,9.80653 z M 569,291.5 c 0,-32.5 0,-32.5 -16.75,-32.50072 -16.75,-7.3e-4 -16.75,-7.3e-4 -16.46719,25.47029 0.2828,25.47101 0.2828,25.47101 4.5,26.55697 7.80164,2.00899 10.18208,2.99649 19.21719,7.97211 4.95,2.72596 9.1125,4.96643 9.25,4.97882 C 568.8875,323.98986 569,309.375 569,291.5 Z m -53.22883,-32.00835 c -10.55847,-8.46302 -35.78784,0.51971 -35.5483,12.6567 0.53215,26.96324 35.18366,34.24693 35.5483,7.47219 0.14914,-10.95135 0.14914,-20.00934 0,-20.12889 z M 460.99731,266.25 c -0.003,-7.75 -0.003,-7.75 -7.5,-7.8117 -9.28769,-0.0764 -9.30727,0.29708 -0.4613,8.79919 8.59758,8.26337 7.96454,8.3419 7.9613,-0.98749 z m 111.93011,-28.88486 c 2.82567,-3.59225 2.60145,-6.99047 -0.67742,-10.26712 -4.14911,-4.14629 -140.65646,-4.23914 -144.10287,-0.098 -2.72485,3.27413 -2.66172,4.77844 0.38892,9.26787 3.43364,5.05305 140.46066,6.09436 144.39137,1.09727 z M 571.6,202.6 c 4.06305,-4.06305 4.34235,-7.29114 0.94775,-10.95398 -4.0185,-4.33603 -141.84575,-4.13857 -146.71285,0.21019 -3.76976,3.36828 -3.00247,7.14212 2.37153,11.66404 5.4702,4.60287 138.72564,3.74768 143.39357,-0.92025 z m -2.6271,-32.9771 c -0.28437,-22.28064 -7.87261,-37.00616 -22.86342,-44.3681 -9.36718,-4.6002 -83.41869,-4.26157 -93.34709,0.42687 -16.74431,7.90708 -25.8908,23.22895 -24.09919,40.37013 0.66623,6.37415 140.39087,9.93037 140.3097,3.5711 z m 60.05533,178.31826 c -3.68927,-1.55344 -3.76254,-2.05116 -1.93911,-13.1722 C 630.56127,313.5924 631.00107,315 620.91235,315 610.22793,315 609.46637,314.23667 610.26199,304.32499 610.98948,295.26194 611.36098,295 623.48737,295 c 10.94041,0 11.27829,-0.59509 15.04607,-26.5 0.31999,-2.2 0.78122,-4.97974 1.02496,-6.17721 0.44143,-2.1687 0.39327,-2.17499 -12.31868,-1.60964 -15.3459,0.6825 -15.63527,0.5097 -15.48728,-9.24895 0.17241,-11.36961 2.27825,-12.36279 23.82324,-11.23585 9.32773,0.48791 9.32773,0.48791 9.82583,-2.12022 0.27395,-1.43447 1.69439,-10.48313 3.15654,-20.10813 3.89438,-25.63591 3.51295,-25.09103 16.0376,-22.90996 7.7697,1.35304 7.70101,1.14245 4.88875,14.98724 -3.38002,16.63989 -5.60684,29.13362 -5.25528,29.48517 0.55521,0.55522 18.81519,0.72658 19.36008,0.18168 0.29281,-0.29281 2.04248,-9.24252 3.88816,-19.88826 3.85406,-22.22994 4.43253,-24.89135 5.78297,-26.60587 2.23617,-2.83906 12.69033,-0.52388 17.33423,3.83884 2.32835,2.18736 2.2404,3.59006 -0.96625,15.41116 -7.93474,29.25092 -8.13986,27.86064 4.20464,28.49962 9.66705,0.50038 9.66705,0.50038 9.95906,8.8473 0.39841,11.38837 0.4578,11.33956 -13.33521,10.96075 C 699.2542,260.5 699.2542,260.5 697.11216,275.5 c -1.17813,8.25 -2.41281,16.0125 -2.74373,17.25 -0.59084,2.20943 -0.4328,2.25244 8.76494,2.38552 20.9522,0.30316 19.36663,-0.45776 19.36663,9.29412 0,10.73945 0.29498,10.57036 -18.44041,10.57036 -15.69552,0 -15.69552,0 -17.85414,12.25 -3.83015,21.73585 -4.27669,22.40236 -14.23462,21.24662 -9.9029,-1.14936 -9.77031,-0.77306 -6.46559,-18.34897 1.56473,-8.32193 2.65367,-15.24722 2.41986,-15.38954 -7.51057,-4.57182 -18.65249,1.27884 -19.85056,10.42359 -2.88655,22.03281 -7.54678,27.60157 -19.04631,22.75946 z M 674.40629,293.25 c 0.99719,-3.22524 4.59332,-26.71136 4.59351,-30 4e-4,-6.62399 -19.34543,-4.76776 -20.84417,2 -0.9927,4.48267 -4.15563,26.50672 -4.15563,28.93642 0,1.83585 19.83051,0.92585 20.40629,-0.93642 z"
       id="path1" />
  </g>
</svg>
